<?xml version="1.0" standalone="no"?>
<!DOCTYPE svg PUBLIC "-//W3C//DTD SVG 20010904//EN"
 "http://www.w3.org/TR/2001/REC-SVG-20010904/DTD/svg10.dtd">
<svg version="1.0" xmlns="http://www.w3.org/2000/svg"
 width="400.000000pt" height="400.000000pt" viewBox="0 0 400.000000 400.000000"
 preserveAspectRatio="xMidYMid meet">
<metadata>
Created by potrace 1.14, written by Peter Selinger 2001-2017
</metadata>
<g transform="translate(0.000000,400.000000) scale(0.100000,-0.100000)"
fill="#000000" stroke="none">
<path d="M0 2000 l0 -2000 1768 2 1767 3 82 43 c82 43 107 67 196 184 20 26
49 73 65 105 37 73 98 293 111 398 12 90 10 2520 -2 2570 -4 17 -8 39 -10 50
-2 11 -9 40 -17 65 -65 225 -90 279 -174 384 -31 38 -56 73 -56 76 0 7 -110
74 -165 100 -26 13 -274 15 -1797 18 l-1768 2 0 -2000z"/>
</g>
</svg>
